<?xml version="1.0" standalone="no"?><!DOCTYPE svg PUBLIC "-//W3C//DTD SVG 1.1//EN" "http://www.w3.org/Graphics/SVG/1.1/DTD/svg11.dtd"><svg t="1555311364926" class="icon" style="" viewBox="0 0 1024 1024" version="1.1" xmlns="http://www.w3.org/2000/svg" p-id="1305" xmlns:xlink="http://www.w3.org/1999/xlink" width="200" height="200"><defs><style type="text/css"></style></defs><path d="M856.4 494.2L496.6 854c-0.8 0.8-2.1 0.8-2.8 0L451 811.2c-0.8-0.8-0.8-2.1 0-2.8l359.8-359.8c0.8-0.8 2.1-0.8 2.8 0l42.8 42.8c0.8 0.7 0.8 2 0 2.8z" fill="#8bc34a" p-id="1306"></path><path d="M110.7 139.7L65 410.7c-1.7 10.3 1.6 20.8 9 28.2L585 950c12.6 12.6 33 12.6 45.6 0L950 630.6c12.6-12.6 12.6-33 0-45.6L439 74c-7.4-7.4-18.1-10.8-28.4-9l-273.8 48.3c-13.4 2.4-23.9 12.9-26.1 26.4z m770.9 468.1L607.8 881.6 134.6 408.3l35.8-209.6c2.3-13.4 12.7-23.9 26.1-26.3l211.8-37.8 473.3 473.2z" fill="#8bc34a" p-id="1307"></path><path d="M276.7 277.9c-37.8 37.8-37.8 99.1 0 136.9s99.1 37.8 136.9 0 37.8-99.1 0-136.9-99.1-37.8-136.9 0z m91.3 91.3c-12.6 12.6-33 12.6-45.6 0-12.6-12.6-12.6-33 0-45.6 12.6-12.6 33-12.6 45.6 0 12.6 12.5 12.6 33 0 45.6z" fill="#8bc34a" p-id="1308"></path></svg>